<svg width="18" height="24" viewBox="0 0 18 24" fill="none" xmlns="http://www.w3.org/2000/svg">
<path d="M8.89822 22.948C7.65863 21.1509 6.60954 19.6565 5.72099 18.3908C4.14464 16.1454 3.07355 14.6197 2.34043 13.4006C1.77986 12.4685 1.45456 11.7741 1.26279 11.1265C1.07329 10.4866 1 9.84469 1 9C1 4.58171 4.58171 1 9 1C13.4183 1 17 4.58171 17 9C17 9.84469 16.9267 10.4866 16.7372 11.1265C16.5454 11.7741 16.2201 12.4685 15.6596 13.4006C14.9264 14.6197 13.8554 16.1454 12.279 18.3908C11.3906 19.6563 10.3418 21.1504 9.1025 22.9469C9.05311 23.0178 8.94649 23.0177 8.89729 22.9466L8.07513 23.5157L8.89822 22.948ZM9 13.75C11.6234 13.75 13.75 11.6234 13.75 9C13.75 6.37663 11.6234 4.25 9 4.25C6.37664 4.25 4.25 6.37663 4.25 9C4.25 11.6234 6.37664 13.75 9 13.75Z" stroke="#8D8D8D" stroke-width="2"/>
</svg>
