<svg width="18" height="18" viewBox="0 0 18 18" fill="none" xmlns="http://www.w3.org/2000/svg">
<path d="M16.1842 5.14124C16.2893 4.79249 16.1842 4.53674 15.6877 4.53674H14.043C13.6245 4.53674 13.4332 4.75799 13.3282 5.00099C13.3282 5.00099 12.492 7.04024 11.307 8.36249C10.9245 8.74724 10.7498 8.86874 10.5413 8.86874C10.437 8.86874 10.2855 8.74724 10.2855 8.39849V5.14124C10.2855 4.72274 10.1648 4.53674 9.816 4.53674H7.2315C6.9705 4.53674 6.813 4.73024 6.813 4.91474C6.813 5.31074 7.4055 5.40224 7.46625 6.51824V8.93924C7.46625 9.46949 7.371 9.56624 7.161 9.56624C6.60375 9.56624 5.24775 7.51949 4.443 5.17649C4.28625 4.72124 4.128 4.53749 3.708 4.53749H2.064C1.59375 4.53749 1.5 4.75874 1.5 5.00174C1.5 5.43824 2.05725 7.59824 4.09575 10.455C5.45475 12.4057 7.368 13.4632 9.111 13.4632C10.1558 13.4632 10.2847 13.2285 10.2847 12.8235V11.349C10.2847 10.8795 10.3845 10.785 10.7153 10.785C10.9583 10.785 11.3767 10.908 12.3525 11.8477C13.467 12.9622 13.6515 13.4625 14.2778 13.4625H15.9218C16.3912 13.4625 16.626 13.2277 16.491 12.7642C16.3433 12.303 15.8108 11.6317 15.1042 10.8375C14.7203 10.3845 14.1465 9.89699 13.9718 9.65324C13.728 9.33899 13.7985 9.20024 13.9718 8.92124C13.9725 8.92199 15.9757 6.10049 16.1842 5.14124Z" fill="#8D8D8D"/>
</svg>
