<svg width="24" height="24" viewBox="0 0 24 24" fill="none" xmlns="http://www.w3.org/2000/svg">
<path d="M16.6497 0.000446932C15.6834 0.0112152 14.6923 0.215639 13.7226 0.63495L13.6786 0.655187L13.6345 0.679756C13.0198 1.01888 12.4596 1.44311 11.9615 1.94586C9.28106 -0.565655 5.01364 -0.747935 2.09411 2.1034L2.06475 2.1323L2.03807 2.16265C-0.523048 5.06068 -0.463068 9.52378 1.07213 13.0503L1.08547 13.0777L1.09881 13.1066C2.90689 16.7338 6.28314 19.8157 9.3599 22.3495L9.3679 22.3567L9.37456 22.3625C9.5725 22.5197 9.91286 22.8447 10.3058 23.1646C10.6987 23.4846 11.1426 23.8352 11.792 23.9697L11.9375 24L12.0842 23.987C12.7659 23.9233 13.0333 23.6507 13.4811 23.3453C13.9289 23.0399 14.4246 22.6523 14.934 22.2281C15.938 21.3918 16.9769 20.428 17.661 19.7407C17.6698 19.7318 17.6843 19.7191 17.693 19.7103C17.6944 19.709 17.6956 19.7073 17.697 19.706C19.1381 18.3739 20.5655 16.8382 21.7755 15.0318C21.7759 15.0313 21.7765 15.0309 21.7768 15.0304C21.7791 15.0271 21.7812 15.0236 21.7835 15.0203C23.7026 12.2211 24.6336 8.44893 23.5233 4.73247L23.5032 4.66598L23.4766 4.60382C22.2299 1.68417 19.5487 -0.0318145 16.6497 0.000446932ZM16.6844 2.28695C18.7731 2.23491 20.6039 3.4465 21.5127 5.51868C22.3525 8.41976 21.6266 11.3756 20.0625 13.6515L20.0585 13.6573L20.0545 13.6631C18.9649 15.292 17.6453 16.7178 16.2775 17.9788L16.2602 17.9962L16.2428 18.0135C15.6269 18.6346 14.5843 19.6022 13.6319 20.3954C13.1556 20.792 12.6991 21.1465 12.3444 21.3883C12.2111 21.4793 12.0843 21.5413 11.9802 21.5892C11.8708 21.5245 11.732 21.4333 11.588 21.3161C11.298 21.08 10.9892 20.7786 10.6527 20.5096C10.6475 20.5053 10.6419 20.5009 10.6367 20.4966C7.65082 18.0363 4.5057 15.0488 2.99331 12.0371C1.76549 9.19547 1.81907 5.79428 3.55365 3.79585C5.91218 1.52408 9.41612 2.01797 11.1637 4.34941L12.0149 5.484L12.838 4.32629C13.3117 3.66063 13.8769 3.15175 14.5631 2.76535C15.2824 2.46096 15.997 2.30407 16.6844 2.28695Z" fill="#8D8D8D"/>
</svg>
