<svg width="24" height="24" viewBox="0 0 24 24" fill="none" xmlns="http://www.w3.org/2000/svg">
<g clip-path="url(#clip0_1962_440)">
<path d="M18.0357 20C16.9506 20 16.0714 20.8952 16.0714 22C16.0714 23.1048 16.9506 24 18.0357 24C19.1208 24 20 23.1048 20 22C20 20.8952 19.1208 20 18.0357 20ZM10.9643 20C9.87921 20 9 20.8952 9 22C9 23.1048 9.87921 24 10.9643 24C12.0494 24 12.9286 23.1048 12.9286 22C12.9286 20.8952 12.0494 20 10.9643 20Z" fill="#8D8D8D"/>
<path fill-rule="evenodd" clip-rule="evenodd" d="M18.0357 21C17.5198 21 17.0714 21.4304 17.0714 22C17.0714 22.5696 17.5198 23 18.0357 23C18.5516 23 19 22.5696 19 22C19 21.4304 18.5516 21 18.0357 21ZM10.9643 21C10.4484 21 10 21.4304 10 22C10 22.5696 10.4484 23 10.9643 23C11.4802 23 11.9286 22.5696 11.9286 22C11.9286 21.4304 11.4802 21 10.9643 21ZM16.0714 22C16.0714 20.8952 16.9506 20 18.0357 20C19.1208 20 20 20.8952 20 22C20 23.1048 19.1208 24 18.0357 24C16.9506 24 16.0714 23.1048 16.0714 22ZM9 22C9 20.8952 9.87921 20 10.9643 20C12.0494 20 12.9286 20.8952 12.9286 22C12.9286 23.1048 12.0494 24 10.9643 24C9.87921 24 9 23.1048 9 22Z" fill="#8D8D8D"/>
<path fill-rule="evenodd" clip-rule="evenodd" d="M0 1C0 0.447715 0.447715 0 1 0H5.68085C6.13458 0 6.53145 0.305483 6.64756 0.744107L7.93745 5.61702H23C23.3262 5.61702 23.6319 5.77613 23.8191 6.04332C24.0062 6.31051 24.0513 6.65219 23.9398 6.95876L20.1951 17.2566C20.0514 17.6518 19.6758 17.9149 19.2553 17.9149H9.89362C9.43989 17.9149 9.04302 17.6094 8.92691 17.1708L4.91112 2H1C0.447715 2 0 1.55228 0 1ZM8.46686 7.61702L10.6634 15.9149H18.5549L21.5723 7.61702H8.46686Z" fill="#8D8D8D"/>
</g>
<defs>
<clipPath id="clip0_1962_440">
<rect width="24" height="24" fill="white"/>
</clipPath>
</defs>
</svg>
