<svg width="24" height="24" viewBox="0 0 24 24" fill="none" xmlns="http://www.w3.org/2000/svg">
<path fill-rule="evenodd" clip-rule="evenodd" d="M14.1613 7.09058C14.1613 5.76213 12.973 4.71822 11.5888 4.96762L11.5844 4.96842L11.5844 4.96841C11.1752 5.04047 10.7356 5.3166 10.3829 5.77398C10.0305 6.23097 9.83833 6.77674 9.83833 7.25107V8.25182C9.83833 8.72327 10.0309 9.26619 10.385 9.72348C10.7391 10.1808 11.1812 10.4599 11.5907 10.5356C12.9741 10.7837 14.1613 9.74014 14.1613 8.41231V7.09058ZM11.1856 2.71774C13.9924 2.21335 16.447 4.36009 16.447 7.09058V8.41231C16.447 11.1435 13.9911 13.2906 11.1835 12.7848L11.1798 12.7841C10.0982 12.5856 9.19564 11.9207 8.57785 11.123C7.95958 10.3247 7.55261 9.30037 7.55261 8.25182V7.25107C7.55261 6.2054 7.95518 5.17925 8.57286 4.37823C9.1898 3.57816 10.0947 2.91057 11.1856 2.71774Z" fill="#8D8D8D"/>
<path fill-rule="evenodd" clip-rule="evenodd" d="M12 2.28571C6.63495 2.28571 2.28571 6.63495 2.28571 12C2.28571 17.3651 6.63495 21.7143 12 21.7143C17.3651 21.7143 21.7143 17.3651 21.7143 12C21.7143 6.63495 17.3651 2.28571 12 2.28571ZM0 12C0 5.37258 5.37258 0 12 0C18.6274 0 24 5.37258 24 12C24 18.6274 18.6274 24 12 24C5.37258 24 0 18.6274 0 12Z" fill="#8D8D8D"/>
<path fill-rule="evenodd" clip-rule="evenodd" d="M11.9998 16.4468C9.10405 16.4468 6.66155 18.1107 5.64245 20.4037C5.38611 20.9805 4.71072 21.2402 4.13394 20.9839C3.55716 20.7275 3.29739 20.0521 3.55374 19.4754C4.95154 16.3303 8.23028 14.1611 11.9998 14.1611C15.7694 14.1611 19.0481 16.3303 20.4459 19.4754C20.7023 20.0521 20.4425 20.7275 19.8657 20.9839C19.289 21.2402 18.6136 20.9805 18.3572 20.4037C17.3381 18.1107 14.8956 16.4468 11.9998 16.4468Z" fill="#8D8D8D"/>
</svg>
