<svg width="20" height="12" viewBox="0 0 20 12" fill="none" xmlns="http://www.w3.org/2000/svg">
<path d="M4.37732 8.21834L1.21257 11.07C1.08647 10.8515 1.0072 10.5625 1.0072 10.2523V0.908967L6.74296 6.0864M12.919 6.38598L18.9999 0.891344V10.2523C18.9999 10.5554 18.9278 10.8338 18.8017 11.0524L14.3821 7.09334M1.23634 0.764111L1.21401 0.750366M6.74296 6.0864L8.35344 7.542C8.43991 7.61954 8.52638 7.6865 8.61285 7.74289C9.48834 8.3773 10.508 8.3773 11.3798 7.73937C11.4627 7.68298 11.5492 7.61249 11.6284 7.542L13.2497 6.07935" stroke="#8D8D8D" stroke-miterlimit="10" stroke-linecap="round" stroke-linejoin="round"/>
<path d="M14.3543 7.06763L18.8021 11.0517C18.6508 11.3231 18.4166 11.4993 18.1572 11.4993H1.8506C1.5984 11.4993 1.36781 11.3336 1.21289 11.0693L5.56443 7.14798" stroke="#8D8D8D" stroke-miterlimit="10" stroke-linecap="round" stroke-linejoin="round"/>
<path d="M1.89721 11.4998C1.89721 11.4998 0.905706 11.5492 1.00731 9.91912M14.9745 0.5H18.3828C18.5954 0.5 18.8008 0.623356 18.9485 0.820726C18.9665 0.841873 18.9845 0.866544 18.9989 0.891215L13.2488 6.07922L11.6275 7.54187C11.5482 7.61236 11.4617 7.68285 11.3789 7.73924C10.507 8.37717 9.48737 8.37717 8.61187 7.74277C8.5254 7.68637 8.43893 7.61941 8.35246 7.54187L6.74198 6.08627L1.00623 0.908837C1.02064 0.887691 1.03865 0.86302 1.05667 0.838348C1.20799 0.626881 1.41335 0.5 1.63673 0.5H14.9745Z" stroke="#8D8D8D" stroke-miterlimit="10" stroke-linecap="round" stroke-linejoin="round"/>
</svg>
