<svg width="18" height="19" viewBox="0 0 18 19" fill="none" xmlns="http://www.w3.org/2000/svg">
<path d="M0 4.11924C0 3.04509 0.392777 2.17535 1.17833 1.51002C1.96388 0.836673 2.99323 0.5 4.26637 0.5C5.55756 0.5 6.59594 0.832665 7.38149 1.498C8.16704 2.15531 8.55982 3.0491 8.55982 4.17936V5.04509C8.55982 6.12725 8.16704 6.99699 7.38149 7.65431C6.59594 8.31162 5.56659 8.64028 4.29345 8.64028C3.01129 8.64028 1.97291 8.31162 1.17833 7.65431C0.392777 6.98898 0 6.09519 0 4.97295V4.11924ZM2.60045 5.04509C2.60045 5.52605 2.75395 5.91483 3.06095 6.21142C3.37698 6.5 3.78781 6.64429 4.29345 6.64429C4.7991 6.64429 5.2009 6.49599 5.49887 6.1994C5.79684 5.90281 5.94582 5.50601 5.94582 5.00902V4.11924C5.94582 3.63828 5.79684 3.2495 5.49887 2.95291C5.2009 2.65631 4.79007 2.50802 4.26637 2.50802C3.76975 2.50802 3.36795 2.65631 3.06095 2.95291C2.75395 3.24148 2.60045 3.64629 2.60045 4.16733V5.04509ZM9.42664 13.9669C9.42664 12.8848 9.82393 12.015 10.6185 11.3577C11.4131 10.6924 12.4424 10.3597 13.7065 10.3597C14.9887 10.3597 16.0226 10.6884 16.8081 11.3457C17.6027 11.995 18 12.8928 18 14.0391V14.9048C18 15.979 17.6117 16.8487 16.8352 17.514C16.0587 18.1713 15.0248 18.5 13.7336 18.5C12.4334 18.5 11.3905 18.1673 10.605 17.502C9.81941 16.8367 9.42664 15.9549 9.42664 14.8567V13.9669ZM12.0271 14.9048C12.0271 15.3457 12.1896 15.7224 12.5147 16.0351C12.8397 16.3477 13.246 16.504 13.7336 16.504C14.8352 16.504 15.386 15.9629 15.386 14.8808V13.9669C15.386 13.486 15.2325 13.1012 14.9255 12.8126C14.6185 12.516 14.2122 12.3677 13.7065 12.3677C13.2009 12.3677 12.7946 12.516 12.4876 12.8126C12.1806 13.1012 12.0271 13.498 12.0271 14.003V14.9048ZM5.06546 16.9489L3.15576 16.0351L12.7856 2.3517L14.6953 3.26553L5.06546 16.9489Z" fill="#E11C4B"/>
</svg>
