<svg width="18" height="18" viewBox="0 0 18 18" fill="none" xmlns="http://www.w3.org/2000/svg">
<path d="M11.9389 13.2886L12.1815 13.3189L12.3544 13.146L13.9022 11.5976C13.9025 11.5972 13.9028 11.5969 13.9031 11.5966C14.0429 11.4589 14.2195 11.3647 14.4116 11.3252C14.6037 11.2858 14.8032 11.3029 14.9858 11.3745C14.9862 11.3746 14.9866 11.3748 14.9869 11.3749L16.8708 12.1274C16.8712 12.1276 16.8716 12.1277 16.872 12.1279C17.056 12.2029 17.2137 12.3305 17.3255 12.4949C17.4371 12.6591 17.4978 12.8526 17.5 13.0511V16.5075C17.4987 16.6422 17.4703 16.7752 17.4165 16.8986C17.3624 17.0226 17.2839 17.1343 17.1856 17.227C17.0872 17.3198 16.9712 17.3917 16.8444 17.4383C16.7184 17.4847 16.5844 17.5053 16.4503 17.4988C9.99645 17.0964 6.15615 14.1741 3.85229 10.849C1.53311 7.5017 0.754087 3.71801 0.505991 1.61159C0.4906 1.47142 0.504946 1.32957 0.548095 1.19533C0.59139 1.06062 0.6627 0.936629 0.757322 0.8315C0.851942 0.726372 0.967729 0.64249 1.09706 0.585362C1.22638 0.528234 1.36633 0.499151 1.50768 0.500019V0.500028H1.51075H4.85208C5.05026 0.500749 5.24374 0.560698 5.40767 0.672215L5.6889 0.258805L5.40767 0.672216C5.57179 0.78386 5.6988 0.942092 5.77233 1.12658L5.77241 1.1268L6.52664 3.0166L6.52663 3.0166L6.528 3.01996C6.60182 3.20109 6.62065 3.39998 6.58214 3.59176C6.54367 3.78337 6.44968 3.95938 6.31192 4.09786C6.31179 4.09799 6.31166 4.09812 6.31153 4.09825L4.76221 5.6482L4.58446 5.82602L4.6212 6.07474L5.11583 6.00168C4.6212 6.07474 4.62123 6.075 4.62128 6.07527L4.62138 6.07594L4.62164 6.0777L4.62243 6.08286L4.62512 6.09966C4.62741 6.1137 4.63074 6.13337 4.63523 6.15832C4.64421 6.2082 4.65785 6.27925 4.67722 6.36867C4.71594 6.54739 4.77765 6.80009 4.8709 7.1042C5.05702 7.71115 5.37096 8.52999 5.88357 9.37586C6.91385 11.076 8.75462 12.8914 11.9389 13.2886Z" stroke="#8D8D8D"/>
</svg>
