<svg width="24" height="24" viewBox="0 0 24 24" fill="none" xmlns="http://www.w3.org/2000/svg">
<rect width="24" height="24" fill="white"/>
<path d="M5.33331 5.99994V3.59993C5.33333 2.90498 5.55684 2.22489 5.97687 1.64176C6.39689 1.05862 6.99547 0.597355 7.70036 0.313651C8.40525 0.029947 9.18631 -0.0640731 9.94926 0.04294C10.7122 0.149953 11.4244 0.453425 12 0.916724C12.5755 0.453425 13.2877 0.149953 14.0507 0.04294C14.8137 -0.0640731 15.5947 0.029947 16.2996 0.313651C17.0045 0.597355 17.6031 1.05862 18.0231 1.64176C18.4431 2.22489 18.6666 2.90498 18.6666 3.59993V5.99994H20.6666C21.1971 5.99994 21.7058 6.18958 22.0809 6.52715C22.4559 6.86472 22.6666 7.32256 22.6666 7.79995V19.806C22.6666 20.9183 22.1757 21.9851 21.3018 22.7716C20.4278 23.5581 19.2426 24 18.0066 24H6.66665C5.25216 24 3.8956 23.4943 2.89541 22.5941C1.89522 21.6939 1.33331 20.473 1.33331 19.2V7.79995C1.33331 7.32256 1.54403 6.86472 1.9191 6.52715C2.29417 6.18958 2.80288 5.99994 3.33331 5.99994H5.33331ZM14.18 22.2C13.6361 21.4978 13.3451 20.662 13.3466 19.806V7.79995H3.33331V19.2C3.33331 19.594 3.41953 19.9841 3.58705 20.348C3.75456 20.712 4.0001 21.0427 4.30962 21.3213C4.61915 21.5999 4.98662 21.8209 5.39104 21.9716C5.79545 22.1224 6.22891 22.2 6.66665 22.2H14.18ZM11.3333 5.99994V3.59993C11.3333 3.12254 11.1226 2.6647 10.7475 2.32714C10.3725 1.98957 9.86375 1.79993 9.33331 1.79993C8.80288 1.79993 8.29417 1.98957 7.9191 2.32714C7.54403 2.6647 7.33331 3.12254 7.33331 3.59993V5.99994H11.3333ZM13.3333 5.99994H16.6666V3.59993C16.6667 3.22941 16.5397 2.86791 16.303 2.56477C16.0662 2.26162 15.7313 2.03161 15.344 1.90613C14.9566 1.78064 14.5357 1.7658 14.1386 1.86363C13.7415 1.96145 13.3877 2.16718 13.1253 2.45273C13.26 2.81273 13.3333 3.19913 13.3333 3.59993V5.99994ZM15.3466 19.806C15.3466 20.4409 15.6269 21.0498 16.1257 21.4988C16.6246 21.9478 17.3012 22.2 18.0066 22.2C18.7121 22.2 19.3887 21.9478 19.8876 21.4988C20.3864 21.0498 20.6666 20.4409 20.6666 19.806V7.79995H15.3466V19.806Z" fill="#8D8D8D"/>
</svg>
